<svg fill="none" fill-rule="evenodd" stroke="black" stroke-width="0.501" stroke-linejoin="bevel" stroke-miterlimit="10" font-family="Times New Roman" font-size="16" style="font-variant-ligatures:none" xmlns:xlink="http://www.w3.org/1999/xlink" xmlns="http://www.w3.org/2000/svg" version="1.1" overflow="visible" width="62.056pt" height="43.998pt" viewBox="132.073 -727.398 62.056 43.998">
 <defs>
	</defs>
 <g id="Layer 1" transform="scale(1 -1)">
  <g id="Group" stroke-linecap="round">
   <rect x="132.225" y="683.552" width="61.753" height="43.694" stroke="#ffffff" fill="#ffffff" stroke-width="0.303" stroke-linejoin="miter"/>
   <path d="M 175.923,698.574 C 176.972,699.247 177.834,700.092 178.509,701.108 C 179.185,702.123 179.637,703.192 179.87,704.314 C 180.101,705.437 180.108,706.598 179.892,707.797 C 179.674,708.997 179.232,710.117 178.564,711.157 C 177.901,712.188 177.064,713.049 176.051,713.739 C 175.038,714.429 173.971,714.903 172.848,715.159 C 171.726,715.418 170.56,715.449 169.353,715.252 C 168.146,715.056 167.022,714.623 165.981,713.955 C 164.933,713.282 164.072,712.436 163.396,711.42 C 162.721,710.405 162.268,709.337 162.037,708.214 C 161.805,707.091 161.799,705.929 162.019,704.725 C 162.239,703.52 162.683,702.399 163.35,701.359 C 164.237,699.982 165.401,698.918 166.838,698.166 C 168.276,697.413 169.805,697.068 171.426,697.13 C 173.046,697.19 174.545,697.67 175.923,698.574 Z M 190.767,703.165 L 183.065,704.376 C 182.816,702.628 182.22,701.012 181.276,699.534 C 180.33,698.055 179.121,696.841 177.645,695.893 C 176.019,694.849 174.259,694.229 172.363,694.034 C 170.469,693.839 168.633,694.07 166.851,694.728 C 165.071,695.386 163.509,696.414 162.164,697.807 L 151.157,709.337 L 158.826,708.142 C 159.069,709.886 159.664,711.499 160.612,712.98 C 161.559,714.463 162.771,715.679 164.247,716.625 C 165.883,717.676 167.647,718.299 169.541,718.495 C 171.435,718.69 173.274,718.456 175.058,717.794 C 176.842,717.131 178.406,716.103 179.751,714.708 C 180.977,713.423 182.813,711.498 185.259,708.936 C 187.705,706.374 189.54,704.451 190.767,703.165 Z" stroke="#bb4545" fill="#0b395f" fill-rule="nonzero" stroke-linejoin="round" stroke-width="0.5" marker-start="none" marker-end="none"/>
   <path d="M 169.044,699.873 C 169.899,700.78 170.531,701.808 170.941,702.957 C 171.352,704.105 171.532,705.252 171.487,706.397 C 171.44,707.542 171.167,708.671 170.667,709.782 C 170.166,710.894 169.467,711.874 168.567,712.722 C 167.675,713.562 166.655,714.195 165.505,714.62 C 164.355,715.045 163.205,715.247 162.054,715.225 C 160.902,715.205 159.764,714.953 158.64,714.471 C 157.516,713.989 156.53,713.297 155.681,712.398 C 154.827,711.491 154.195,710.462 153.785,709.313 C 153.375,708.165 153.193,707.019 153.24,705.874 C 153.287,704.728 153.561,703.599 154.066,702.484 C 154.57,701.368 155.272,700.387 156.17,699.539 C 157.364,698.417 158.75,697.666 160.326,697.283 C 161.903,696.9 163.471,696.934 165.029,697.386 C 166.586,697.835 167.925,698.663 169.044,699.873 Z M 182.339,707.914 L 174.573,707.229 C 174.753,705.472 174.565,703.76 174.006,702.098 C 173.446,700.434 172.566,698.964 171.362,697.688 C 170.037,696.282 168.478,695.255 166.686,694.608 C 164.895,693.961 163.057,693.742 161.169,693.95 C 159.283,694.159 157.519,694.779 155.877,695.806 L 142.411,704.336 L 150.142,705.028 C 149.956,706.779 150.144,708.488 150.706,710.155 C 151.267,711.822 152.15,713.295 153.353,714.57 C 154.687,715.985 156.248,717.015 158.039,717.663 C 159.83,718.31 161.671,718.527 163.562,718.315 C 165.453,718.103 167.219,717.483 168.861,716.454 C 170.361,715.503 172.608,714.079 175.6,712.184 C 178.593,710.288 180.838,708.865 182.339,707.914 Z" stroke="#bb4545" fill="#f90a30" fill-rule="nonzero" stroke-linejoin="round" stroke-width="0.5" marker-start="none" marker-end="none"/>
  </g>
 </g>
</svg>
