<?xml version="1.0" standalone="no"?>
<!DOCTYPE svg PUBLIC "-//W3C//DTD SVG 1.1//EN" "http://www.w3.org/Graphics/SVG/1.1/DTD/svg11.dtd">
<!--Generator: Xara Designer (www.xara.com), SVG filter version: 6.3.0.31-->
<svg fill="none" fill-rule="evenodd" stroke="black" stroke-width="0.501" stroke-linejoin="bevel" stroke-miterlimit="10" font-family="Times New Roman" font-size="16" style="font-variant-ligatures:none" xmlns:xlink="http://www.w3.org/1999/xlink" xmlns="http://www.w3.org/2000/svg" version="1.1" overflow="visible" width="230.407pt" height="83.503pt" viewBox="-0.053 -86.289 230.407 83.503">
 <defs>
	</defs>
 <g id="Layer 1" transform="scale(1 -1)">
  <path d="M 147.506,57.175 L 187.027,61.676 L 204.994,57.175 L 158.284,50.22 L 147.506,57.175 Z" stroke="none" fill="#8d821b" stroke-width="1.432" fill-rule="nonzero" stroke-linejoin="miter" marker-start="none" marker-end="none"/>
  <path d="M 171.702,70.332 L 183.892,68.253 L 181.605,44.55 L 171.702,42.888 L 171.702,70.332 Z" stroke="none" fill="#da4c1f" stroke-width="1.433" fill-rule="nonzero" stroke-linejoin="miter" marker-start="none" marker-end="none"/>
  <path d="M 6.049,83.713 L 2.889,83.809 L 3.424,81.172 L 18.428,7.254 L 18.822,5.305 L 21.155,5.455 L 61.856,8.075 L 93.357,10.103 L 203.063,17.165 L 204.798,17.276 L 205.318,18.682 L 225.947,74.303 L 226.956,77.024 L 223.588,77.126 L 6.049,83.713 Z" fill="none" stroke="#c1c4c6" stroke-width="4.78" fill-rule="nonzero" stroke-linejoin="miter" marker-start="none" marker-end="none"/>
  <path d="M 70.464,46.423 L 65.068,32.779 L 64.171,32.779 L 69.869,47.031 L 70.567,47.031 L 70.464,46.423 Z M 75.566,32.779 L 70.183,46.423 L 70.078,47.031 L 70.765,47.031 L 76.474,32.779 L 75.566,32.779 Z M 74.233,37.662 L 74.233,36.929 L 66.453,36.929 L 66.453,37.662 L 74.233,37.662 Z M 78.525,47.813 L 79.359,47.813 L 79.359,34.834 L 79.327,32.779 L 78.525,32.779 L 78.525,47.813 Z M 87.337,38.182 L 87.337,37.977 C 87.337,37.174 87.239,36.443 87.046,35.783 C 86.858,35.124 86.58,34.558 86.213,34.081 C 85.851,33.605 85.407,33.235 84.879,32.975 C 84.352,32.714 83.75,32.583 83.077,32.583 C 82.432,32.583 81.852,32.674 81.338,32.857 C 80.831,33.04 80.393,33.291 80.025,33.611 C 79.657,33.937 79.359,34.312 79.129,34.737 C 78.907,35.167 78.751,35.627 78.661,36.117 L 78.661,39.767 C 78.778,40.323 78.956,40.828 79.192,41.285 C 79.428,41.748 79.727,42.149 80.088,42.489 C 80.449,42.835 80.876,43.099 81.369,43.282 C 81.869,43.471 82.432,43.565 83.056,43.565 C 83.737,43.565 84.34,43.438 84.869,43.184 C 85.403,42.936 85.851,42.577 86.213,42.107 C 86.58,41.644 86.858,41.08 87.046,40.413 C 87.239,39.755 87.337,39.011 87.337,38.182 Z M 86.494,37.977 L 86.494,38.182 C 86.494,38.848 86.424,39.465 86.286,40.031 C 86.146,40.6 85.931,41.093 85.64,41.51 C 85.355,41.927 84.99,42.254 84.546,42.489 C 84.101,42.723 83.578,42.841 82.973,42.841 C 82.306,42.841 81.744,42.737 81.286,42.528 C 80.834,42.326 80.463,42.061 80.171,41.736 C 79.886,41.409 79.66,41.057 79.494,40.678 C 79.335,40.306 79.216,39.954 79.14,39.621 L 79.14,36.165 C 79.265,35.651 79.484,35.174 79.796,34.737 C 80.116,34.306 80.539,33.961 81.066,33.699 C 81.602,33.438 82.244,33.308 82.993,33.308 C 83.591,33.308 84.109,33.425 84.546,33.66 C 84.99,33.895 85.355,34.221 85.64,34.639 C 85.924,35.056 86.135,35.549 86.275,36.117 C 86.421,36.685 86.494,37.305 86.494,37.977 Z M 97.171,35.412 C 97.171,35.726 97.08,36.035 96.899,36.342 C 96.726,36.649 96.403,36.935 95.931,37.203 C 95.465,37.471 94.788,37.696 93.9,37.878 C 93.268,38.01 92.708,38.152 92.223,38.309 C 91.743,38.466 91.341,38.656 91.014,38.878 C 90.688,39.105 90.442,39.376 90.275,39.69 C 90.115,40.002 90.035,40.378 90.035,40.815 C 90.035,41.193 90.123,41.549 90.295,41.882 C 90.47,42.215 90.723,42.506 91.056,42.753 C 91.396,43.008 91.802,43.207 92.274,43.35 C 92.746,43.493 93.281,43.565 93.879,43.565 C 94.733,43.565 95.462,43.432 96.067,43.164 C 96.677,42.902 97.146,42.541 97.472,42.077 C 97.799,41.621 97.961,41.09 97.961,40.482 L 97.129,40.482 C 97.129,40.893 97.004,41.278 96.754,41.637 C 96.504,41.996 96.137,42.286 95.649,42.509 C 95.171,42.737 94.581,42.851 93.879,42.851 C 93.17,42.851 92.594,42.749 92.149,42.547 C 91.705,42.345 91.379,42.088 91.17,41.774 C 90.969,41.468 90.868,41.154 90.868,40.834 C 90.868,40.58 90.907,40.342 90.982,40.121 C 91.066,39.905 91.223,39.707 91.452,39.524 C 91.681,39.341 92.011,39.164 92.441,38.994 C 92.872,38.831 93.432,38.678 94.119,38.534 C 95.021,38.346 95.758,38.113 96.326,37.84 C 96.895,37.572 97.316,37.242 97.587,36.851 C 97.858,36.466 97.993,35.993 97.993,35.432 C 97.993,35.013 97.899,34.629 97.711,34.277 C 97.525,33.931 97.254,33.631 96.899,33.376 C 96.552,33.121 96.129,32.926 95.629,32.788 C 95.129,32.652 94.573,32.583 93.963,32.583 C 93.039,32.583 92.254,32.721 91.608,32.994 C 90.969,33.275 90.483,33.643 90.15,34.101 C 89.823,34.558 89.66,35.05 89.66,35.578 L 90.493,35.578 C 90.542,34.998 90.743,34.541 91.098,34.208 C 91.458,33.876 91.896,33.64 92.41,33.503 C 92.93,33.367 93.448,33.298 93.963,33.298 C 94.664,33.298 95.251,33.4 95.723,33.601 C 96.202,33.81 96.563,34.074 96.806,34.394 C 97.049,34.72 97.171,35.06 97.171,35.412 Z M 104.982,43.37 L 104.982,42.664 L 99.587,42.664 L 99.587,43.37 L 104.982,43.37 Z M 101.671,46.169 L 102.503,46.169 L 102.503,35.334 C 102.503,34.766 102.577,34.335 102.722,34.042 C 102.875,33.755 103.073,33.558 103.315,33.455 C 103.565,33.357 103.833,33.308 104.118,33.308 C 104.319,33.308 104.504,33.317 104.67,33.337 C 104.844,33.357 105.017,33.38 105.191,33.406 L 105.263,32.721 C 105.111,32.674 104.913,32.642 104.67,32.622 C 104.427,32.597 104.212,32.583 104.025,32.583 C 103.552,32.583 103.139,32.665 102.784,32.828 C 102.43,32.992 102.156,33.272 101.962,33.67 C 101.767,34.074 101.671,34.629 101.671,35.334 L 101.671,46.169 Z M 108.596,41.569 L 108.596,32.779 L 107.774,32.779 L 107.774,43.37 L 108.587,43.37 L 108.596,41.569 Z M 112.888,43.449 L 112.837,42.744 C 112.712,42.762 112.587,42.778 112.462,42.792 C 112.337,42.805 112.205,42.812 112.066,42.812 C 111.469,42.812 110.944,42.701 110.493,42.48 C 110.048,42.257 109.674,41.953 109.368,41.569 C 109.069,41.183 108.844,40.737 108.691,40.228 C 108.538,39.719 108.458,39.174 108.451,38.593 L 108.045,38.516 C 108.045,39.239 108.124,39.908 108.285,40.521 C 108.451,41.135 108.701,41.669 109.034,42.127 C 109.368,42.583 109.788,42.936 110.295,43.184 C 110.801,43.438 111.399,43.565 112.087,43.565 C 112.253,43.565 112.406,43.552 112.545,43.526 C 112.684,43.507 112.799,43.481 112.888,43.449 Z M 121.514,34.727 L 121.514,40.198 C 121.514,40.753 121.389,41.23 121.139,41.627 C 120.888,42.025 120.523,42.329 120.045,42.538 C 119.566,42.753 118.98,42.861 118.284,42.861 C 117.638,42.861 117.059,42.753 116.545,42.538 C 116.038,42.329 115.639,42.042 115.347,41.677 C 115.055,41.311 114.91,40.903 114.91,40.452 L 114.076,40.463 C 114.076,40.867 114.176,41.255 114.379,41.627 C 114.586,42 114.878,42.329 115.253,42.616 C 115.635,42.91 116.083,43.141 116.597,43.311 C 117.118,43.481 117.687,43.565 118.306,43.565 C 119.097,43.565 119.795,43.438 120.398,43.184 C 121.01,42.936 121.486,42.561 121.826,42.059 C 122.166,41.556 122.336,40.929 122.336,40.179 L 122.336,34.952 C 122.336,34.574 122.364,34.192 122.419,33.807 C 122.475,33.422 122.552,33.111 122.649,32.878 L 122.649,32.779 L 121.742,32.779 C 121.666,33.027 121.607,33.33 121.565,33.689 C 121.531,34.048 121.514,34.394 121.514,34.727 Z M 121.784,38.789 L 121.805,38.113 L 119.055,38.113 C 118.361,38.113 117.739,38.052 117.19,37.927 C 116.642,37.803 116.178,37.628 115.795,37.399 C 115.413,37.17 115.121,36.9 114.919,36.586 C 114.719,36.273 114.618,35.921 114.618,35.53 C 114.618,35.124 114.732,34.753 114.961,34.413 C 115.191,34.074 115.514,33.804 115.93,33.601 C 116.346,33.406 116.83,33.308 117.378,33.308 C 118.127,33.308 118.791,33.428 119.368,33.67 C 119.951,33.918 120.44,34.251 120.836,34.668 C 121.232,35.093 121.52,35.582 121.701,36.136 L 122.065,35.569 C 121.947,35.222 121.763,34.873 121.514,34.521 C 121.264,34.17 120.941,33.847 120.545,33.553 C 120.148,33.265 119.683,33.03 119.149,32.848 C 118.614,32.672 118.006,32.583 117.326,32.583 C 116.611,32.583 115.986,32.707 115.451,32.955 C 114.923,33.209 114.513,33.555 114.222,33.993 C 113.93,34.437 113.785,34.942 113.785,35.51 C 113.785,35.999 113.903,36.446 114.138,36.851 C 114.375,37.255 114.715,37.602 115.159,37.888 C 115.611,38.182 116.156,38.404 116.795,38.554 C 117.44,38.711 118.166,38.789 118.972,38.789 L 121.784,38.789 Z M 129.815,33.298 C 130.377,33.298 130.908,33.396 131.409,33.591 C 131.916,33.788 132.337,34.085 132.669,34.482 C 133.01,34.886 133.2,35.399 133.242,36.019 L 134.055,36.019 C 134.019,35.314 133.805,34.704 133.409,34.188 C 133.012,33.68 132.503,33.285 131.877,33.004 C 131.253,32.724 130.565,32.583 129.815,32.583 C 129.065,32.583 128.395,32.714 127.805,32.975 C 127.222,33.235 126.732,33.605 126.337,34.081 C 125.94,34.558 125.638,35.115 125.429,35.755 C 125.229,36.4 125.128,37.105 125.128,37.87 L 125.128,38.28 C 125.128,39.044 125.229,39.745 125.429,40.384 C 125.638,41.031 125.94,41.592 126.337,42.068 C 126.732,42.544 127.219,42.913 127.795,43.174 C 128.378,43.435 129.044,43.565 129.795,43.565 C 130.552,43.565 131.245,43.419 131.877,43.126 C 132.509,42.838 133.02,42.417 133.409,41.863 C 133.805,41.314 134.019,40.643 134.055,39.847 L 133.242,39.847 C 133.207,40.499 133.031,41.047 132.711,41.49 C 132.392,41.935 131.974,42.271 131.461,42.498 C 130.947,42.734 130.392,42.851 129.795,42.851 C 129.127,42.851 128.552,42.73 128.065,42.489 C 127.579,42.247 127.18,41.915 126.868,41.49 C 126.555,41.073 126.325,40.587 126.181,40.031 C 126.034,39.484 125.96,38.9 125.96,38.28 L 125.96,37.87 C 125.96,37.242 126.034,36.652 126.181,36.098 C 126.325,35.549 126.555,35.066 126.868,34.649 C 127.18,34.231 127.579,33.902 128.065,33.66 C 128.558,33.418 129.142,33.298 129.815,33.298 Z M 140.752,43.37 L 140.752,42.664 L 135.357,42.664 L 135.357,43.37 L 140.752,43.37 Z M 137.44,46.169 L 138.273,46.169 L 138.273,35.334 C 138.273,34.766 138.347,34.335 138.492,34.042 C 138.644,33.755 138.842,33.558 139.086,33.455 C 139.335,33.357 139.603,33.308 139.888,33.308 C 140.088,33.308 140.273,33.317 140.439,33.337 C 140.614,33.357 140.787,33.38 140.961,33.406 L 141.033,32.721 C 140.881,32.674 140.683,32.642 140.439,32.622 C 140.197,32.597 139.982,32.583 139.794,32.583 C 139.322,32.583 138.909,32.665 138.555,32.828 C 138.201,32.992 137.926,33.272 137.732,33.67 C 137.536,34.074 137.44,34.629 137.44,35.334 L 137.44,46.169 Z" stroke="none" fill="#000000" stroke-width="1.432" fill-rule="nonzero" stroke-linejoin="miter" marker-start="none" marker-end="none"/>
  <path d="M 33.065,34.02 L 33.208,34.356 L 33.673,34.843 C 33.911,35.212 34.107,35.43 34.262,35.497 C 34.286,35.587 34.321,35.671 34.369,35.749 C 34.417,35.827 34.452,35.95 34.475,36.118 L 34.636,36.387 C 34.685,36.431 34.708,36.465 34.708,36.487 C 34.708,36.51 34.66,36.577 34.565,36.689 L 34.475,37.042 C 34.475,37.13 34.161,37.427 33.53,37.93 L 33.387,37.93 L 32.101,38.517 L 32.03,38.685 L 31.887,38.719 L 31.709,38.652 L 31.672,38.652 L 31.066,38.82 C 30.578,38.943 30.256,39.037 30.101,39.104 C 30.077,39.082 30.042,39.071 29.993,39.071 L 29.279,39.222 C 29.077,39.267 28.952,39.312 28.905,39.356 C 28.869,39.413 28.768,39.463 28.602,39.508 C 28.447,39.564 28.345,39.614 28.297,39.658 C 28.25,39.704 28.154,39.725 28.012,39.725 L 27.566,39.624 C 27.566,39.658 27.398,39.715 27.066,39.792 C 27.018,39.905 26.982,39.96 26.959,39.96 L 26.44,39.893 C 26.095,40.05 25.917,40.128 25.904,40.128 C 25.845,40.128 25.637,40.156 25.28,40.212 C 24.922,40.28 24.691,40.347 24.583,40.413 C 24.476,40.481 24.315,40.548 24.102,40.616 L 23.994,40.716 C 23.97,40.738 23.905,40.76 23.797,40.784 L 23.476,40.784 C 23.405,40.784 23.304,40.839 23.173,40.951 C 23.053,41.063 22.893,41.174 22.691,41.287 C 22.5,41.398 22.327,41.571 22.172,41.807 C 22.03,42.052 21.953,42.299 21.941,42.545 C 21.917,42.567 21.905,42.589 21.905,42.612 L 22.013,43.149 C 22.119,43.831 22.459,44.463 23.03,45.046 C 23.124,45.347 23.322,45.565 23.619,45.7 L 23.691,45.934 C 24.036,46.214 24.28,46.437 24.423,46.605 C 24.577,46.773 24.75,46.908 24.941,47.008 C 25.131,47.12 25.28,47.22 25.387,47.31 L 25.708,47.444 C 25.697,47.545 25.958,47.779 26.495,48.149 C 27.042,48.53 27.464,48.775 27.762,48.887 C 28.07,49.011 28.274,49.1 28.369,49.155 C 28.477,49.211 28.773,49.295 29.261,49.408 C 29.38,49.71 29.571,49.861 29.833,49.861 L 30.101,49.861 L 30.458,50.196 L 30.941,50.162 C 30.964,50.185 31.03,50.252 31.138,50.364 C 31.244,50.486 31.423,50.549 31.672,50.549 L 33.833,51.17 L 33.976,51.17 L 34.119,51.136 C 34.214,51.136 34.333,51.214 34.475,51.371 C 34.631,51.528 34.827,51.605 35.065,51.605 C 35.113,51.605 35.203,51.562 35.332,51.471 C 35.332,51.449 35.345,51.437 35.369,51.437 L 35.834,51.572 L 36.387,51.538 L 37.083,51.706 C 37.523,51.706 37.91,51.605 38.244,51.405 L 38.279,51.471 L 38.279,51.572 C 38.279,51.762 38.393,51.857 38.619,51.857 C 38.714,51.857 38.774,51.835 38.797,51.79 L 39.012,51.673 L 39.136,51.673 C 39.16,51.673 39.315,51.605 39.601,51.471 C 39.779,51.583 39.892,51.639 39.94,51.639 C 40.166,51.639 40.345,51.549 40.476,51.371 L 40.78,51.405 C 40.874,51.494 40.935,51.538 40.958,51.538 C 41.03,51.538 41.124,51.449 41.244,51.27 L 41.351,51.237 L 41.797,51.237 C 41.82,51.237 41.869,51.203 41.94,51.136 L 42.137,50.985 C 42.232,50.895 42.297,50.823 42.333,50.767 C 42.368,50.71 42.41,50.66 42.458,50.616 C 42.768,50.739 42.934,50.8 42.958,50.8 C 43.077,50.8 43.165,50.705 43.226,50.515 C 43.226,50.358 43.328,50.202 43.529,50.046 C 43.743,49.899 43.85,49.743 43.85,49.575 C 44.113,49.463 44.243,49.285 44.243,49.039 L 44.582,48.216 L 44.511,47.931 C 44.607,47.752 44.654,47.652 44.654,47.629 L 44.582,47.008 L 44.654,46.354 C 44.654,46.007 44.481,45.71 44.136,45.465 C 44.064,45.465 43.946,45.414 43.779,45.313 C 43.625,45.224 43.535,45.179 43.512,45.179 C 43.202,45.179 42.994,45.246 42.886,45.381 C 42.791,45.526 42.696,45.633 42.601,45.7 C 42.505,45.767 42.458,45.856 42.458,45.968 C 42.458,46.224 42.643,46.477 43.011,46.723 C 43.178,46.723 43.297,46.773 43.369,46.874 C 43.369,47.108 43.315,47.271 43.207,47.36 C 43.101,47.45 42.981,47.572 42.851,47.729 C 42.732,47.886 42.601,48.01 42.458,48.099 C 42.315,48.2 42.197,48.323 42.101,48.467 C 42.018,48.614 41.94,48.686 41.869,48.686 L 41.619,48.652 L 41.101,48.753 C 40.553,48.82 40.053,48.938 39.601,49.105 L 39.243,49.105 L 38.279,49.24 C 38.113,49.172 37.875,49.139 37.565,49.139 L 36.387,48.97 L 35.904,49.004 C 35.868,49.004 35.541,48.91 34.923,48.719 L 34.743,48.686 L 34.262,48.686 C 34.237,48.686 34.083,48.631 33.797,48.518 C 33.523,48.407 33.291,48.328 33.101,48.284 L 32.94,48.216 C 32.917,48.194 32.88,48.183 32.834,48.183 L 32.548,48.216 L 30.975,47.495 L 30.726,47.629 C 30.524,47.719 30.411,47.763 30.386,47.763 C 30.22,47.763 30.136,47.685 30.136,47.528 L 30.101,47.209 C 29.947,47.12 29.846,47.052 29.797,47.008 C 29.75,46.964 29.69,46.93 29.619,46.908 L 29.404,46.908 C 29.261,46.908 29.125,46.846 28.994,46.723 C 28.875,46.612 28.768,46.549 28.673,46.538 C 28.577,46.528 28.44,46.477 28.262,46.388 C 28.238,46.343 28.142,46.297 27.976,46.253 C 27.809,46.208 27.678,46.102 27.583,45.934 C 27.499,45.777 27.398,45.7 27.28,45.7 L 26.923,45.767 L 26.726,45.431 C 26.476,45.375 26.332,45.341 26.297,45.33 C 26.143,45.14 25.988,44.994 25.833,44.893 C 25.678,44.793 25.524,44.682 25.369,44.558 C 25.226,44.446 25.119,44.329 25.047,44.205 C 24.988,44.083 24.893,43.982 24.762,43.904 C 24.631,43.837 24.518,43.691 24.423,43.467 L 24.244,43.3 C 23.947,43.065 23.797,42.813 23.797,42.545 C 23.797,42.355 23.94,42.215 24.226,42.125 C 24.512,42.035 24.691,41.963 24.762,41.907 C 24.833,41.851 24.941,41.823 25.084,41.823 C 25.226,41.823 25.364,41.795 25.493,41.739 C 25.625,41.683 25.845,41.594 26.154,41.471 C 26.214,41.291 26.274,41.203 26.332,41.203 C 26.357,41.203 26.404,41.248 26.476,41.337 C 26.547,41.426 26.655,41.471 26.798,41.471 C 26.952,41.471 27.102,41.381 27.244,41.203 L 27.387,41.304 L 27.458,41.304 L 27.691,41.236 L 27.726,41.236 L 27.941,41.337 C 27.964,41.359 28,41.371 28.048,41.371 C 28.084,41.371 28.267,41.314 28.602,41.203 L 28.637,41.203 C 28.661,41.203 28.756,41.224 28.923,41.27 C 29.101,41.224 29.202,41.191 29.226,41.169 L 29.476,41.035 C 29.476,41.001 29.5,40.984 29.547,40.984 C 29.595,40.984 29.666,41.007 29.762,41.052 C 29.857,41.107 29.947,41.136 30.03,41.136 C 30.125,41.136 30.232,41.073 30.351,40.951 C 30.542,41.029 30.649,41.068 30.672,41.068 C 30.779,41.068 30.964,40.984 31.226,40.816 L 31.566,40.75 L 31.958,40.75 L 32.548,40.649 C 32.713,40.481 32.887,40.352 33.065,40.263 C 33.089,40.386 33.172,40.448 33.315,40.448 C 33.506,40.448 33.797,40.375 34.19,40.229 L 34.333,40.196 L 34.475,40.095 C 34.678,40.14 34.803,40.162 34.851,40.162 C 35.089,40.162 35.208,40.084 35.208,39.927 C 35.208,39.792 35.172,39.62 35.101,39.407 C 35.125,39.407 35.161,39.384 35.208,39.34 C 35.268,39.407 35.332,39.452 35.404,39.474 L 35.69,39.624 C 35.738,39.67 35.774,39.692 35.798,39.692 C 36.071,39.692 36.458,39.513 36.958,39.155 C 37.459,38.796 37.744,38.389 37.815,37.93 C 37.815,37.796 37.863,37.639 37.958,37.461 L 37.887,37.242 L 37.922,36.974 C 37.922,36.951 37.898,36.874 37.851,36.739 L 37.815,36.487 C 37.791,36.442 37.755,36.404 37.708,36.371 C 37.661,36.337 37.625,36.297 37.601,36.253 L 37.708,35.967 L 37.708,35.899 C 37.708,35.855 37.661,35.794 37.565,35.715 C 37.481,35.637 37.429,35.564 37.404,35.497 C 37.38,35.43 37.339,35.358 37.279,35.278 C 37.22,35.212 37.178,35.128 37.154,35.027 C 37.131,34.927 37.011,34.809 36.798,34.675 C 36.595,34.552 36.494,34.457 36.494,34.39 C 36.494,34.323 36.518,34.289 36.565,34.289 C 36.708,34.289 36.857,34.352 37.011,34.474 C 37.178,34.608 37.303,34.686 37.387,34.708 C 37.47,34.732 37.613,34.799 37.815,34.91 L 39.493,35.648 C 40.744,36.207 41.44,36.487 41.583,36.487 C 41.774,36.487 41.869,36.398 41.869,36.218 C 41.869,36.152 41.785,36.023 41.619,35.833 C 41.594,35.307 41.351,34.999 40.887,34.91 C 40.709,34.799 40.571,34.681 40.476,34.558 L 40.333,34.558 C 40.036,34.244 39.696,34.087 39.315,34.087 L 39.208,34.087 C 38.767,33.674 38.232,33.444 37.601,33.4 C 37.184,33.008 36.839,32.812 36.565,32.812 L 36.28,32.745 C 35.982,32.633 35.774,32.578 35.654,32.578 C 35.631,32.578 35.582,32.532 35.512,32.444 L 35.244,32.259 C 35.018,32.214 34.774,32.092 34.512,31.89 C 34.25,31.689 34.047,31.57 33.904,31.537 C 33.774,31.515 33.631,31.47 33.476,31.404 C 33.322,31.336 32.696,30.956 31.602,30.262 L 31.369,30.195 C 30.904,29.994 30.613,29.826 30.494,29.691 C 30.375,29.568 30.232,29.462 30.065,29.373 L 29.993,29.373 C 29.721,29.373 29.399,29.205 29.03,28.87 C 29.006,28.814 28.744,28.719 28.244,28.584 C 27.756,28.461 27.285,28.266 26.834,27.997 C 26.547,27.93 26.196,27.84 25.78,27.729 C 25.364,27.616 25.06,27.549 24.869,27.528 L 23.619,27.275 C 23.346,27.231 23.03,27.164 22.673,27.074 C 22.459,27.141 22.274,27.175 22.119,27.175 L 21.798,27.141 C 21.75,27.141 21.672,27.18 21.566,27.258 C 21.47,27.337 21.34,27.415 21.173,27.494 C 21.007,27.561 20.923,27.751 20.923,28.064 C 20.923,28.343 21.25,28.618 21.905,28.887 C 22.56,29.166 22.988,29.362 23.191,29.474 C 23.285,29.597 23.447,29.669 23.673,29.691 C 23.911,29.715 24.113,29.782 24.28,29.893 C 24.447,30.005 24.702,30.105 25.047,30.195 L 25.761,30.547 C 25.798,30.569 25.828,30.581 25.851,30.581 L 26.101,30.581 C 26.185,30.581 26.31,30.643 26.476,30.766 C 26.642,30.889 26.816,30.978 26.994,31.033 L 27.209,31.033 C 27.232,31.033 27.268,31.062 27.315,31.117 C 27.363,31.173 27.47,31.247 27.637,31.336 L 27.691,31.369 L 27.869,31.369 C 28,31.47 28.154,31.553 28.334,31.621 C 28.512,31.689 28.685,31.777 28.851,31.89 L 30.243,32.393 L 30.565,32.36 C 30.636,32.36 30.726,32.41 30.832,32.511 C 30.953,32.622 31.221,32.734 31.637,32.846 C 31.696,32.936 31.821,33.042 32.012,33.165 C 32.202,33.288 32.428,33.467 32.691,33.702 L 33.065,34.02 Z M 26.834,29.826 L 26.584,29.859 C 26.416,29.77 26.25,29.719 26.083,29.708 C 25.928,29.698 25.678,29.591 25.333,29.39 C 25.001,29.199 24.613,29.014 24.173,28.836 C 23.733,28.656 23.512,28.54 23.512,28.483 C 24.095,28.551 24.702,28.702 25.333,28.937 L 26.618,29.272 C 26.785,29.317 26.899,29.362 26.959,29.406 C 27.03,29.451 27.16,29.513 27.352,29.591 L 27.637,29.792 C 27.696,29.815 27.827,29.859 28.029,29.926 C 28.233,29.994 28.334,30.061 28.334,30.128 C 28.334,30.173 28.309,30.195 28.262,30.195 C 27.833,30.195 27.495,30.134 27.244,30.01 C 26.994,29.887 26.857,29.826 26.834,29.826 Z M 44.975,38.82 L 45.118,39.239 C 45.07,39.373 45.196,39.603 45.494,39.927 C 45.517,40.151 45.606,40.408 45.762,40.699 C 45.927,41.001 46.059,41.304 46.154,41.605 C 46.261,41.907 46.476,42.17 46.797,42.394 C 46.892,42.673 46.94,42.846 46.94,42.914 C 46.976,42.958 47.076,43.003 47.243,43.048 C 47.326,43.205 47.398,43.378 47.458,43.568 L 48.118,44.675 C 48.166,44.754 48.261,44.945 48.404,45.246 L 49.368,46.119 C 49.368,46.364 49.464,46.532 49.653,46.622 C 49.845,46.712 49.957,46.857 49.994,47.058 C 50.041,47.271 50.166,47.467 50.368,47.646 C 50.583,47.825 50.761,48.003 50.904,48.183 C 51.023,48.205 51.095,48.261 51.119,48.35 L 51.315,48.619 C 51.446,48.809 51.553,48.904 51.636,48.904 L 51.779,48.904 C 51.803,49.061 51.981,49.273 52.315,49.542 C 52.66,49.822 52.886,50.029 52.993,50.162 C 53.112,50.308 53.268,50.426 53.457,50.515 L 53.6,50.683 C 53.684,50.66 53.903,50.789 54.261,51.069 C 54.63,51.36 54.898,51.505 55.065,51.505 L 55.404,51.471 L 55.797,51.605 C 56.178,51.605 56.481,51.398 56.707,50.985 C 56.731,50.985 56.797,51.024 56.904,51.102 L 57.332,51.304 C 57.451,51.394 57.57,51.494 57.689,51.605 C 57.821,51.729 58.154,51.88 58.689,52.058 L 59.011,52.26 C 59.166,52.349 59.302,52.394 59.422,52.394 L 60.475,52.512 C 61.356,52.512 62.046,52.277 62.546,51.807 C 63.046,51.338 63.331,51.018 63.403,50.85 C 63.403,50.806 63.415,50.773 63.439,50.75 L 63.331,50.263 C 63.356,50.218 63.487,50.118 63.725,49.962 L 63.779,49.794 C 63.779,49.727 63.731,49.682 63.636,49.659 C 63.553,49.637 63.512,49.609 63.512,49.575 C 63.512,49.531 63.54,49.48 63.6,49.425 C 63.659,49.368 63.689,49.295 63.689,49.207 L 63.618,48.434 C 63.618,48.289 63.553,48.01 63.421,47.596 C 63.29,47.182 63.225,46.964 63.225,46.941 L 63.368,46.421 C 63.296,46.287 63.202,46.186 63.082,46.119 C 63.01,45.604 62.689,44.698 62.118,43.4 L 62.118,43.266 L 61.903,42.779 C 61.761,42.444 61.6,42.249 61.422,42.192 C 61.422,42.17 61.339,41.823 61.172,41.152 C 61.004,40.492 60.773,40.128 60.475,40.061 C 60.356,39.973 60.261,39.809 60.19,39.575 C 60.119,39.352 59.981,39.1 59.779,38.82 L 59.601,38.517 C 59.576,38.406 59.481,38.26 59.314,38.081 C 59.159,37.913 59.016,37.673 58.886,37.36 C 58.767,37.046 58.588,36.862 58.35,36.806 C 58.339,36.773 58.314,36.683 58.279,36.538 C 58.256,36.392 58.196,36.27 58.1,36.169 C 58.005,36.068 57.939,35.95 57.904,35.816 C 57.868,35.693 57.713,35.576 57.44,35.463 C 57.32,35.207 57.219,35.039 57.136,34.96 C 57.052,34.882 56.957,34.742 56.85,34.541 C 56.755,34.352 56.54,34.222 56.208,34.155 L 56.083,34.087 L 56.083,33.92 L 55.975,33.702 C 55.833,33.59 55.737,33.456 55.69,33.3 C 55.333,32.852 54.904,32.494 54.404,32.225 C 54.213,31.767 53.969,31.504 53.672,31.437 C 53.553,31.325 53.493,31.224 53.493,31.134 L 54.046,30.162 L 54.332,29.994 C 54.499,29.904 54.636,29.731 54.742,29.474 C 54.838,29.44 54.922,29.384 54.993,29.306 L 54.993,29.037 C 55.279,28.947 55.487,28.903 55.619,28.903 L 56.047,28.971 C 56.178,28.971 56.303,28.92 56.421,28.819 L 56.529,28.786 L 56.85,28.786 C 57.052,28.786 57.267,28.673 57.493,28.45 C 57.731,28.215 57.85,28.008 57.85,27.829 C 57.85,27.595 57.796,27.448 57.689,27.393 C 57.594,27.337 57.511,27.253 57.44,27.141 C 57.368,27.029 57.124,26.973 56.707,26.973 C 56.66,26.973 56.564,26.94 56.421,26.872 C 56.326,26.895 56.154,26.918 55.904,26.94 C 55.665,26.962 55.338,27.074 54.922,27.275 C 54.505,27.465 54.267,27.605 54.207,27.696 C 54.148,27.784 54.046,27.891 53.903,28.014 C 53.773,28.126 53.654,28.293 53.547,28.517 C 53.439,28.752 53.35,28.903 53.279,28.971 C 53.207,29.037 53.136,29.154 53.064,29.322 C 53.004,29.501 52.916,29.658 52.797,29.792 C 52.774,29.792 52.761,29.815 52.761,29.859 L 52.797,30.195 C 52.797,30.205 52.767,30.262 52.707,30.362 C 52.66,30.463 52.618,30.513 52.582,30.513 C 52.357,30.189 52.077,30.038 51.743,30.061 C 51.648,30.005 51.53,29.91 51.387,29.775 C 51.255,29.652 50.838,29.44 50.137,29.138 L 49.761,29.171 C 49.642,29.06 49.524,29.004 49.403,29.004 L 49.368,29.004 L 49.136,29.037 C 48.946,28.87 48.791,28.786 48.671,28.786 L 48.047,28.903 L 47.707,28.786 L 47.494,28.819 L 47.243,28.786 C 47.172,28.842 47.053,28.874 46.887,28.887 C 46.731,28.897 46.624,28.93 46.565,28.987 C 46.505,29.043 46.41,29.104 46.279,29.171 C 46.16,29.238 46.052,29.328 45.958,29.44 C 45.863,29.563 45.672,29.681 45.387,29.792 C 45.112,29.904 44.903,30.156 44.761,30.547 L 44.101,32.36 C 43.97,32.706 43.904,33.064 43.904,33.433 C 43.904,33.478 43.958,33.612 44.064,33.836 L 43.993,34.121 L 44.029,35.011 L 43.958,35.396 C 44.148,35.732 44.243,35.911 44.243,35.933 L 44.172,36.455 C 44.172,36.566 44.243,36.806 44.386,37.175 C 44.529,37.545 44.6,37.773 44.6,37.863 C 44.6,38.165 44.642,38.356 44.725,38.433 C 44.821,38.512 44.903,38.641 44.975,38.82 Z M 54.261,35.799 L 54.512,36.152 L 54.742,36.253 C 54.802,36.287 54.88,36.387 54.976,36.554 C 55.083,36.722 55.32,36.951 55.69,37.242 C 55.713,37.287 55.762,37.399 55.833,37.578 C 55.904,37.769 56.029,37.897 56.208,37.964 C 56.208,38.31 56.356,38.59 56.654,38.803 C 56.964,39.027 57.154,39.244 57.225,39.457 C 57.308,39.67 57.469,39.966 57.707,40.347 C 58.196,40.996 58.487,41.359 58.582,41.438 C 58.689,41.515 58.761,41.7 58.796,41.991 C 58.845,42.282 58.916,42.461 59.011,42.528 C 59.106,42.606 59.183,42.723 59.243,42.88 C 59.314,43.037 59.386,43.188 59.458,43.334 C 59.529,43.491 59.576,43.635 59.601,43.77 C 59.624,43.915 59.719,44.044 59.886,44.155 C 59.91,44.155 59.969,44.251 60.065,44.441 C 60.16,44.631 60.308,44.776 60.511,44.877 L 60.404,45.113 C 60.404,45.57 60.499,45.895 60.69,46.085 C 60.892,46.287 60.993,46.409 60.993,46.454 L 60.993,46.555 L 60.921,46.773 L 60.921,46.807 C 60.946,46.829 60.958,46.863 60.958,46.908 L 60.958,47.108 L 61.475,49.374 C 61.51,49.575 61.487,49.805 61.404,50.063 C 61.332,50.319 61.219,50.503 61.064,50.616 L 60.85,50.817 C 60.803,50.884 60.469,50.929 59.851,50.951 L 58.653,50.549 L 56.493,49.139 C 56.351,49.05 56.183,48.882 55.993,48.635 C 55.815,48.4 55.619,48.222 55.404,48.099 C 55.202,47.987 55.052,47.841 54.958,47.663 C 54.922,47.639 54.833,47.624 54.69,47.612 C 54.546,47.601 54.439,47.4 54.369,47.008 L 54.153,46.588 C 53.963,46.51 53.857,46.415 53.832,46.304 C 53.82,46.203 53.779,46.091 53.707,45.968 C 53.636,45.856 53.589,45.744 53.564,45.633 L 53.457,45.431 C 53.41,45.409 53.363,45.106 53.314,44.525 C 53.529,44.145 53.636,43.837 53.636,43.602 C 53.636,43.479 53.534,43.243 53.332,42.897 C 53.142,42.562 52.916,42.394 52.654,42.394 C 52,42.394 51.672,42.774 51.672,43.534 C 51.672,43.837 51.815,44.239 52.101,44.743 L 52.064,45.012 C 52.064,45.056 52.147,45.163 52.315,45.33 C 52.493,45.509 52.612,45.666 52.672,45.8 C 52.732,45.934 52.803,46.046 52.886,46.136 C 52.97,46.237 53.035,46.421 53.083,46.689 C 53.142,46.968 53.416,47.316 53.903,47.729 C 53.987,48.087 54.13,48.362 54.332,48.551 L 54.512,48.854 C 54.738,49.067 54.993,49.262 55.279,49.442 L 55.44,49.659 L 55.244,49.659 C 55.148,49.659 55.029,49.62 54.886,49.542 L 54.708,49.509 L 54.475,49.341 C 54.38,49.251 54.178,49.161 53.868,49.071 L 53.743,49.004 C 53.719,48.904 53.631,48.803 53.475,48.703 C 53.332,48.614 53.207,48.491 53.1,48.333 C 52.993,48.177 52.833,47.998 52.618,47.796 L 52.244,47.243 C 52.053,47.254 51.862,47.069 51.672,46.689 C 51.493,46.308 51.35,46.063 51.243,45.951 C 51.137,45.85 51.065,45.721 51.029,45.565 C 50.994,45.409 50.928,45.302 50.833,45.246 C 50.833,45.101 50.719,44.949 50.493,44.793 C 50.446,44.76 50.398,44.659 50.351,44.491 L 50.012,44.021 C 50.012,43.876 49.928,43.742 49.761,43.618 C 49.595,43.496 49.512,43.423 49.512,43.4 L 49.619,43.115 C 49.619,43.026 49.47,42.807 49.172,42.461 C 48.886,42.125 48.696,41.795 48.601,41.471 L 48.529,41.304 C 48.327,41.191 48.225,41.04 48.225,40.85 C 48.225,40.76 48.202,40.565 48.154,40.263 C 48.047,40.218 47.904,40.067 47.725,39.809 C 47.559,39.564 47.476,39.335 47.476,39.121 C 47.487,38.909 47.404,38.652 47.226,38.35 C 47.047,38.059 46.892,37.656 46.762,37.142 C 46.69,37.142 46.641,37.13 46.619,37.108 L 46.725,36.739 C 46.452,36.247 46.315,35.95 46.315,35.85 L 46.476,35.396 C 46.356,35.285 46.297,35.19 46.297,35.111 L 46.333,34.843 L 46.261,34.39 L 46.297,33.988 C 46.297,33.887 46.285,33.813 46.261,33.769 L 46.172,33.433 L 46.261,32.913 C 46.261,32.824 46.232,32.667 46.172,32.444 C 46.195,32.398 46.249,32.326 46.333,32.225 C 46.333,31.375 46.499,30.794 46.833,30.48 C 46.892,30.402 46.947,30.318 46.993,30.229 L 47.351,30.195 C 47.422,30.195 47.487,30.212 47.547,30.246 C 47.606,30.289 47.684,30.318 47.779,30.329 C 47.886,30.341 47.975,30.379 48.047,30.446 C 48.285,30.491 48.482,30.581 48.636,30.715 C 48.803,30.85 48.981,30.922 49.172,30.933 C 49.374,30.945 49.642,31.134 49.975,31.504 L 50.208,31.637 L 51.082,32.326 L 51.208,32.377 C 51.291,32.41 51.333,32.455 51.333,32.511 C 51.047,32.824 50.844,33.109 50.726,33.367 C 50.619,33.635 50.493,33.769 50.351,33.769 C 50.302,33.769 50.238,33.736 50.155,33.668 C 49.928,33.49 49.726,33.4 49.546,33.4 C 48.868,33.4 48.529,33.545 48.529,33.836 C 48.529,34.44 48.988,34.742 49.905,34.742 C 50.13,34.742 50.487,34.614 50.976,34.356 C 50.998,34.311 51.13,34.178 51.368,33.954 L 51.922,33.333 C 51.969,33.288 52.005,33.266 52.029,33.266 C 52.184,33.266 52.493,33.534 52.958,34.071 C 53.422,34.608 53.707,35.027 53.815,35.329 C 53.993,35.564 54.142,35.721 54.261,35.799 Z" stroke="none" fill="#000000" stroke-width="1.432" fill-rule="nonzero" stroke-linejoin="miter" marker-start="none" marker-end="none"/>
  <path d="M 147.508,38.711 L 143.008,38.711 L 143.008,39.435 L 147.508,39.435 C 148.48,39.435 149.271,39.585 149.882,39.885 C 150.495,40.192 150.937,40.6 151.214,41.108 C 151.5,41.625 151.644,42.191 151.644,42.812 C 151.644,43.451 151.5,44.036 151.214,44.564 C 150.937,45.092 150.495,45.513 149.882,45.826 C 149.271,46.147 148.48,46.306 147.508,46.306 L 143.445,46.306 L 143.445,32.779 L 142.601,32.779 L 142.601,47.031 L 147.508,47.031 C 148.596,47.031 149.512,46.854 150.247,46.503 C 150.99,46.149 151.549,45.657 151.924,45.024 C 152.298,44.398 152.486,43.666 152.486,42.832 C 152.486,41.983 152.298,41.248 151.924,40.629 C 151.549,40.015 150.993,39.542 150.258,39.21 C 149.521,38.878 148.605,38.711 147.508,38.711 Z M 156.216,47.813 L 156.216,32.779 L 155.383,32.779 L 155.383,47.813 L 156.216,47.813 Z M 167.235,35.226 L 167.235,43.37 L 168.069,43.37 L 168.069,32.779 L 167.246,32.779 L 167.235,35.226 Z M 167.382,37.027 L 167.923,37.046 C 167.923,36.4 167.836,35.807 167.662,35.265 C 167.496,34.724 167.232,34.251 166.871,33.847 C 166.517,33.448 166.059,33.138 165.497,32.916 C 164.934,32.695 164.261,32.583 163.475,32.583 C 162.927,32.583 162.424,32.655 161.965,32.798 C 161.515,32.949 161.121,33.184 160.788,33.503 C 160.463,33.822 160.209,34.241 160.029,34.757 C 159.855,35.271 159.767,35.895 159.767,36.626 L 159.767,43.37 L 160.59,43.37 L 160.59,36.606 C 160.59,35.993 160.663,35.474 160.808,35.05 C 160.963,34.625 161.17,34.286 161.435,34.031 C 161.698,33.778 162.008,33.591 162.361,33.474 C 162.715,33.363 163.099,33.308 163.518,33.308 C 164.489,33.308 165.256,33.484 165.818,33.836 C 166.389,34.188 166.791,34.649 167.026,35.216 C 167.263,35.783 167.382,36.388 167.382,37.027 Z M 178.391,35.412 C 178.391,35.726 178.301,36.035 178.122,36.342 C 177.947,36.649 177.625,36.935 177.152,37.203 C 176.688,37.471 176.009,37.696 175.122,37.878 C 174.49,38.01 173.93,38.152 173.444,38.309 C 172.965,38.466 172.563,38.656 172.236,38.878 C 171.91,39.105 171.662,39.376 171.496,39.69 C 171.337,40.002 171.257,40.378 171.257,40.815 C 171.257,41.193 171.343,41.549 171.518,41.882 C 171.691,42.215 171.944,42.506 172.278,42.753 C 172.617,43.008 173.024,43.207 173.497,43.35 C 173.968,43.493 174.503,43.565 175.1,43.565 C 175.955,43.565 176.683,43.432 177.288,43.164 C 177.899,42.902 178.369,42.541 178.695,42.077 C 179.02,41.621 179.184,41.09 179.184,40.482 L 178.35,40.482 C 178.35,40.893 178.225,41.278 177.975,41.637 C 177.725,41.996 177.356,42.286 176.871,42.509 C 176.392,42.737 175.802,42.851 175.1,42.851 C 174.391,42.851 173.815,42.749 173.371,42.547 C 172.927,42.345 172.601,42.088 172.392,41.774 C 172.191,41.468 172.091,41.154 172.091,40.834 C 172.091,40.58 172.128,40.342 172.205,40.121 C 172.289,39.905 172.444,39.707 172.674,39.524 C 172.903,39.341 173.231,39.164 173.663,38.994 C 174.093,38.831 174.652,38.678 175.341,38.534 C 176.243,38.346 176.979,38.113 177.548,37.84 C 178.117,37.572 178.538,37.242 178.808,36.851 C 179.08,36.466 179.214,35.993 179.214,35.432 C 179.214,35.013 179.121,34.629 178.934,34.277 C 178.746,33.931 178.475,33.631 178.122,33.376 C 177.774,33.121 177.351,32.926 176.85,32.788 C 176.351,32.652 175.795,32.583 175.184,32.583 C 174.261,32.583 173.475,32.721 172.83,32.994 C 172.191,33.275 171.705,33.643 171.371,34.101 C 171.045,34.558 170.882,35.05 170.882,35.578 L 171.716,35.578 C 171.764,34.998 171.966,34.541 172.32,34.208 C 172.68,33.876 173.118,33.64 173.631,33.503 C 174.152,33.367 174.671,33.298 175.184,33.298 C 175.884,33.298 176.471,33.4 176.944,33.601 C 177.423,33.81 177.785,34.074 178.027,34.394 C 178.271,34.72 178.391,35.06 178.391,35.412 Z" stroke="none" fill="#000000" stroke-width="1.432" fill-rule="nonzero" stroke-linejoin="miter" marker-start="none" marker-end="none"/>
 </g>
</svg>
